# Blender v2.79 (sub 0) OBJ File: 'tiles.blend'
# www.blender.org
o Floor_1_Plane.002
v -0.500000 0.000000 0.500000
v 0.500000 0.000000 0.500000
v -0.500000 0.000000 -0.500000
v 0.500000 0.000000 -0.500000
v 0.135520 0.042258 -0.265616
vt 0.987019 0.884976
vt 0.986855 0.984712
vt 0.950460 0.961129
vt 0.887250 0.984897
vt 0.887039 0.884976
vn 0.0327 0.9987 0.0395
vn 0.0734 0.9951 -0.0653
vn 0.0182 0.9984 -0.0528
vn -0.0514 0.9978 -0.0405
vn -0.0293 0.9991 0.0308
s 1
f 2/1/1 4/2/2 5/3/3
f 3/4/4 1/5/5 5/3/3
f 4/2/2 3/4/4 5/3/3
f 1/5/5 2/1/1 5/3/3
