# Blender v2.79 (sub 0) OBJ File: 'tiles.blend'
# www.blender.org
o Melting_4_Cube.001
v -0.358253 -0.080336 0.364175
v -0.328880 0.007626 0.402716
v -0.423810 -0.108458 -0.384302
v -0.354736 -0.030193 -0.378658
v 0.372250 -0.126318 0.356071
v 0.348040 0.049900 0.376009
v 0.367263 -0.152166 -0.384218
v 0.362482 -0.010559 -0.356186
v -0.480433 -0.028545 0.011104
v -0.392317 0.015174 -0.010499
v 0.477033 -0.095987 0.040850
v 0.367302 0.017662 -0.018908
v -0.000789 -0.085379 -0.465702
v 0.007570 0.060208 -0.355569
v 0.031928 -0.121516 0.483369
v 0.087846 -0.022067 0.434857
v 0.003036 -0.014079 0.130803
v -0.007519 -0.044904 0.442195
vt 0.149865 0.923225
vt 0.140284 0.963647
vt 0.140284 0.919223
vt 0.184264 0.980193
vt 0.215898 0.961490
vt 0.226687 0.972657
vt 0.240264 0.926137
vt 0.217533 0.902733
vt 0.229246 0.892419
vt 0.189896 0.889379
vt 0.162470 0.887016
vt 0.196689 0.882913
vt 0.190726 0.915831
vt 0.169364 0.893527
vt 0.186073 0.959435
vt 0.222699 0.932202
vt 0.202993 0.893168
vt 0.151265 0.959688
vn -0.2986 0.9543 0.0040
vn -0.5941 0.6129 -0.5209
vn -0.4380 0.8984 0.0313
vn 0.0183 0.5395 -0.8417
vn 0.6677 0.5662 -0.4832
vn 0.7128 0.2440 -0.6576
vn 0.8093 0.5837 -0.0651
vn 0.4380 0.6889 0.5775
vn 0.7134 0.0575 0.6984
vn 0.3612 0.7402 0.5671
vn -0.7854 0.1450 0.6018
vn 0.0290 0.6022 0.7978
vn -0.0259 0.9960 0.0853
vn -0.4456 0.5588 0.6993
vn 0.0008 0.9154 -0.4026
vn 0.4521 0.8879 -0.0844
vn -0.2577 0.7043 0.6614
vn -0.4154 0.6958 -0.5859
s 1
f 10/1/1 3/2/2 9/3/3
f 13/4/4 8/5/5 7/6/6
f 11/7/7 6/8/8 5/9/9
f 18/10/10 1/11/11 15/12/12
f 17/13/13 2/14/14 18/10/10
f 14/15/15 10/1/1 17/13/13
f 7/6/6 12/16/16 11/7/7
f 1/11/11 10/1/1 9/3/3
f 14/15/15 12/16/16 8/5/5
f 17/13/13 6/8/8 12/16/16
f 5/9/9 16/17/17 15/12/12
f 4/18/18 13/4/4 3/2/2
f 16/17/17 17/13/13 15/12/12
f 18/10/10 15/12/12 17/13/13
f 10/1/1 4/18/18 3/2/2
f 13/4/4 14/15/15 8/5/5
f 11/7/7 12/16/16 6/8/8
f 18/10/10 2/14/14 1/11/11
f 17/13/13 10/1/1 2/14/14
f 14/15/15 4/18/18 10/1/1
f 7/6/6 8/5/5 12/16/16
f 1/11/11 2/14/14 10/1/1
f 14/15/15 17/13/13 12/16/16
f 17/13/13 16/17/17 6/8/8
f 5/9/9 6/8/8 16/17/17
f 4/18/18 14/15/15 13/4/4
