# Blender v2.79 (sub 0) OBJ File: 'tiles.blend'
# www.blender.org
o Melting_5_Cube
v -0.365005 -0.080336 0.377678
v -0.335632 0.007626 0.416219
v -0.423810 -0.108458 -0.384302
v -0.395244 -0.030193 -0.432669
v 0.372250 -0.126318 0.356071
v 0.348040 0.049900 0.376009
v 0.380765 -0.152166 -0.424726
v 0.375985 -0.010559 -0.396694
v -0.487185 -0.028545 0.011104
v -0.399068 0.021176 -0.010499
v 0.512815 -0.095987 0.061105
v 0.403085 0.017662 0.001347
v -0.000789 -0.085379 -0.512962
v 0.007570 0.060208 -0.402829
v -0.009814 -0.104928 0.487038
v 0.004363 -0.044904 0.442195
v 0.003036 0.055743 0.039837
vt 0.042345 0.973966
vt 0.077640 0.988617
vt 0.036978 0.982263
vt 0.104973 0.959027
vt 0.097193 0.923450
vt 0.110304 0.917298
vt 0.068802 0.889102
vt 0.039973 0.906297
vt 0.034787 0.890209
vt 0.010324 0.922573
vt 0.016967 0.949564
vt 0.010324 0.955377
vt 0.052764 0.937735
vt 0.018161 0.923705
vt 0.087055 0.950895
vt 0.068781 0.905337
vt 0.077814 0.979556
vn -0.3662 0.9305 -0.0078
vn -0.8793 0.1216 -0.4604
vn -0.4857 0.8736 0.0295
vn 0.0292 0.5093 -0.8601
vn 0.6522 0.5743 -0.4948
vn 0.7107 0.2314 -0.6643
vn 0.8061 0.5915 -0.0147
vn 0.4277 0.6538 0.6242
vn 0.6578 0.0450 0.7518
vn 0.1224 0.5053 0.8542
vn -0.4965 0.5500 0.6715
vn -0.8238 0.1158 0.5549
vn -0.0124 0.9980 0.0613
vn 0.0974 0.7609 0.6415
vn 0.0121 0.8983 -0.4391
vn 0.5076 0.8558 -0.1000
vn -0.5984 0.3976 -0.6955
s 1
f 10/1/1 3/2/2 9/3/3
f 13/4/4 8/5/5 7/6/6
f 11/7/7 6/8/8 5/9/9
f 15/10/10 2/11/11 1/12/12
f 17/13/13 2/11/11 16/14/14
f 14/15/15 10/1/1 17/13/13
f 7/6/6 12/16/16 11/7/7
f 1/12/12 10/1/1 9/3/3
f 14/15/15 12/16/16 8/5/5
f 17/13/13 6/8/8 12/16/16
f 5/9/9 16/14/14 15/10/10
f 4/17/17 13/4/4 3/2/2
f 10/1/1 4/17/17 3/2/2
f 13/4/4 14/15/15 8/5/5
f 11/7/7 12/16/16 6/8/8
f 15/10/10 16/14/14 2/11/11
f 17/13/13 10/1/1 2/11/11
f 14/15/15 4/17/17 10/1/1
f 7/6/6 8/5/5 12/16/16
f 1/12/12 2/11/11 10/1/1
f 14/15/15 17/13/13 12/16/16
f 17/13/13 16/14/14 6/8/8
f 5/9/9 6/8/8 16/14/14
f 4/17/17 14/15/15 13/4/4
