# Blender v2.79 (sub 0) OBJ File: 'tiles.blend'
# www.blender.org
o Wall_1_Plane.006
v -0.500000 0.000000 0.500000
v 0.500000 0.000000 0.500000
v -0.500000 0.000000 -0.500000
v 0.500000 0.000000 -0.500000
v 0.166731 -0.072558 -0.045511
v 0.348224 0.114300 0.317956
v -0.020127 0.008977 0.336413
v -0.195600 -0.010672 -0.404583
v 0.107827 0.174665 0.419777
v -0.247026 0.339877 -0.217010
v 0.378237 0.269215 0.123980
v 0.156849 0.017402 0.252055
v 0.367622 0.018438 0.088051
v -0.373803 0.005321 -0.070436
v -0.099140 -0.043084 -0.063255
v -0.012109 -0.047834 -0.333342
v 0.391202 0.240179 -0.091927
v 0.251654 0.202898 0.312674
v -0.287500 0.193790 0.304628
v -0.246441 0.067241 -0.246621
v 0.165364 0.210593 -0.295701
v -0.220475 0.152680 -0.358667
v -0.343110 0.169646 0.113384
v -0.047913 0.339352 -0.393943
v 0.054805 0.392172 0.004500
v -0.096433 0.356781 0.140009
v -0.098594 0.450058 -0.227877
vt 0.887039 0.884976
vt 0.987019 0.984956
vt 0.887039 0.984956
vt 0.987019 0.884976
vt 0.938748 0.709281
vt 0.930365 0.700443
vt 0.930058 0.697967
vt 0.929722 0.701768
vt 0.930204 0.703918
vt 0.934068 0.687075
vt 0.929195 0.702692
vt 0.929461 0.699719
vt 0.939933 0.672812
vt 0.935800 0.666335
vt 0.942117 0.661267
vt 0.929473 0.701043
vt 0.928792 0.696694
vt 0.926932 0.671903
vt 0.927547 0.692910
vt 0.913357 0.678619
vt 0.927943 0.699292
vt 0.925019 0.699466
vt 0.926117 0.702496
vt 0.928917 0.704397
vt 0.927901 0.701547
vt 0.925231 0.706468
vt 0.927246 0.708361
vt 0.913357 0.705982
vt 0.951756 0.687367
vt 0.941973 0.681465
vn 0.0000 1.0000 0.0000
vn 0.3505 -0.9206 -0.1718
vn 0.2711 -0.8110 0.5184
vn -0.1198 -0.7450 0.6561
vn 0.5810 -0.1924 0.7908
vn 0.7606 -0.6491 -0.0110
vn -0.1951 -0.9805 0.0227
vn 0.7585 0.6112 0.2261
vn 0.2409 0.1750 0.9546
vn -0.3727 -0.4576 -0.8073
vn -0.9022 -0.3616 -0.2352
vn -0.6063 0.0926 -0.7898
vn 0.3030 0.5078 0.8064
vn -0.7105 0.1889 0.6778
vn -0.8639 -0.4522 -0.2216
vn -0.9324 0.3382 0.1274
vn -0.2238 0.9010 0.3717
vn -0.8038 0.5470 -0.2336
vn -0.1532 0.9632 -0.2208
vn 0.8685 0.2604 -0.4217
vn 0.2235 0.9560 0.1898
vn 0.0627 0.4112 -0.9094
vn 0.5867 -0.0465 -0.8084
vn 0.2507 -0.7010 -0.6676
s 1
f 2/1/1 3/2/1 1/3/1
f 2/1/1 4/4/1 3/2/1
f 5/5/2 12/6/3 7/7/4
f 6/8/5 12/6/3 13/9/6
f 5/5/2 7/7/4 15/10/7
f 6/8/5 13/9/6 11/11/8
f 7/7/4 12/6/3 9/12/9
f 8/13/10 20/14/11 22/15/12
f 6/8/5 11/11/8 18/16/13
f 7/7/4 9/12/9 19/17/14
f 14/18/15 23/19/16 20/20/11
f 9/12/9 11/11/8 26/21/17
f 10/22/18 23/19/16 27/23/19
f 11/11/8 17/24/20 25/25/21
f 25/25/21 17/24/20 27/23/19
f 17/24/20 24/26/22 27/23/19
f 24/26/22 10/22/18 27/23/19
f 27/23/19 26/21/17 25/25/21
f 27/23/19 23/19/16 26/21/17
f 23/19/16 19/17/14 26/21/17
f 26/21/17 11/11/8 25/25/21
f 21/27/23 24/26/22 17/24/20
f 22/28/12 10/22/18 24/26/22
f 20/20/11 23/19/16 10/22/18
f 19/17/14 9/12/9 26/21/17
f 18/16/13 11/11/8 9/12/9
f 21/27/23 22/28/12 24/26/22
f 21/29/23 16/30/24 22/15/12
f 16/30/24 8/13/10 22/15/12
f 22/28/12 20/20/11 10/22/18
f 23/19/16 14/18/15 19/17/14
f 14/18/15 7/7/4 19/17/14
f 9/12/9 12/6/3 18/16/13
f 12/6/3 6/8/5 18/16/13
f 11/11/8 13/9/6 17/24/20
f 13/9/6 21/27/23 17/24/20
f 5/5/2 16/30/24 21/29/23
f 5/5/2 15/10/7 16/30/24
f 15/10/7 8/13/10 16/30/24
f 15/10/7 20/14/11 8/13/10
f 15/10/7 14/18/15 20/14/11
f 15/10/7 7/7/4 14/18/15
f 13/9/6 5/5/2 21/27/23
f 13/9/6 12/6/3 5/5/2
