# Blender v2.79 (sub 0) OBJ File: 'tiles.blend'
# www.blender.org
o Wall_0_Cube.006
v -0.360289 -0.104765 0.298444
v -0.271627 1.289092 0.415642
v -0.324849 -0.217925 -0.365862
v -0.314192 1.250850 -0.318005
v 0.330188 -0.310700 0.230626
v 0.253320 1.160540 0.319833
v 0.384876 -0.329168 -0.369480
v 0.305244 1.161245 -0.274692
v -0.330628 0.567129 0.393053
v -0.336113 0.460129 -0.380346
v 0.399922 0.410927 -0.320971
v 0.338083 0.409675 0.320365
v 0.052483 -0.266711 -0.486667
v 0.037978 1.358721 -0.324653
v -0.016945 -0.291441 0.411935
v 0.024863 1.255127 0.451795
v 0.018164 0.391423 0.513333
v 0.068408 0.493779 -0.461856
v -0.500260 -0.124741 -0.034981
v -0.350090 1.391007 0.062329
v 0.499740 -0.277754 -0.100425
v 0.313305 1.273645 0.006375
v 0.489644 0.470328 -0.034345
v -0.484563 0.546028 0.002047
v 0.029927 1.579941 0.078786
v -0.500000 0.000000 0.500000
v 0.500000 0.000000 0.500000
v -0.500000 0.000000 -0.500000
v 0.500000 0.000000 -0.500000
vt 0.673317 0.702769
vt 0.655505 0.745803
vt 0.641650 0.699979
vt 0.610659 0.713666
vt 0.623093 0.767474
vt 0.579514 0.723829
vt 0.792264 0.744960
vt 0.725262 0.765848
vt 0.762857 0.720180
vt 0.707129 0.758389
vt 0.703115 0.709677
vt 0.734644 0.705826
vt 0.678306 0.792194
vt 0.691946 0.750584
vt 0.709891 0.646720
vt 0.755631 0.642768
vt 0.830290 0.674929
vt 0.794975 0.656722
vt 0.585105 0.646591
vt 0.548444 0.657246
vt 0.670349 0.640788
vt 0.627182 0.637760
vt 0.728321 0.798502
vt 0.645200 0.764365
vt 0.626019 0.798502
vt 0.524294 0.677308
vt 0.674095 0.753974
vt 0.559964 0.747447
vt 0.983720 0.881709
vt 0.883740 0.981689
vt 0.883740 0.881709
vt 0.983720 0.981689
vn -0.9985 0.0548 0.0063
vn -0.5982 0.4498 -0.6632
vn -0.6300 0.0349 -0.7758
vn 0.1049 0.0672 -0.9922
vn 0.7172 0.3723 -0.5891
vn 0.7394 0.0769 -0.6688
vn 0.9951 0.0857 0.0497
vn 0.7507 0.3074 0.5847
vn 0.7453 -0.0064 0.6667
vn 0.2356 0.4030 0.8843
vn -0.6799 0.0100 0.7332
vn 0.0989 -0.0542 0.9936
vn 0.1739 0.9831 0.0572
vn -0.5384 0.4225 0.7290
vn -0.6887 -0.0682 0.7218
vn 0.1313 -0.1349 0.9821
vn 0.9998 -0.0178 -0.0007
vn 0.7157 -0.0940 0.6920
vn 0.0580 0.0441 -0.9973
vn 0.6744 0.0346 -0.7375
vn -0.9969 -0.0013 -0.0787
vn -0.5879 -0.0006 -0.8089
vn 0.8593 0.5113 0.0120
vn 0.1549 0.6487 -0.7451
vn -0.7716 0.6360 -0.0045
vn 0.0000 1.0000 0.0000
s 1
f 24/1/1 4/2/2 10/3/3
f 18/4/4 8/5/5 11/6/6
f 23/7/7 6/8/8 12/9/9
f 16/10/10 9/11/11 17/12/12
f 25/13/13 2/14/14 16/10/10
f 17/12/12 1/15/15 15/16/16
f 21/17/17 12/9/9 5/18/18
f 13/19/19 11/6/6 7/20/20
f 19/21/21 10/3/3 3/22/22
f 3/22/22 18/4/4 13/19/19
f 12/9/9 15/16/16 5/18/18
f 25/13/13 6/8/8 22/23/23
f 6/8/8 17/12/12 12/9/9
f 4/2/2 18/4/4 10/3/3
f 14/24/24 22/25/23 8/5/5
f 1/15/15 24/1/1 19/21/21
f 11/6/6 21/26/17 7/20/20
f 14/24/24 20/27/25 25/13/13
f 8/5/5 23/28/7 11/6/6
f 2/14/14 24/1/1 9/11/11
f 27/29/26 28/30/26 26/31/26
f 27/29/26 29/32/26 28/30/26
f 24/1/1 20/27/25 4/2/2
f 18/4/4 14/24/24 8/5/5
f 23/7/7 22/23/23 6/8/8
f 16/10/10 2/14/14 9/11/11
f 25/13/13 20/27/25 2/14/14
f 17/12/12 9/11/11 1/15/15
f 21/17/17 23/7/7 12/9/9
f 13/19/19 18/4/4 11/6/6
f 19/21/21 24/1/1 10/3/3
f 3/22/22 10/3/3 18/4/4
f 12/9/9 17/12/12 15/16/16
f 25/13/13 16/10/10 6/8/8
f 6/8/8 16/10/10 17/12/12
f 4/2/2 14/24/24 18/4/4
f 14/24/24 25/13/13 22/25/23
f 1/15/15 9/11/11 24/1/1
f 11/6/6 23/28/7 21/26/17
f 14/24/24 4/2/2 20/27/25
f 8/5/5 22/25/23 23/28/7
f 2/14/14 20/27/25 24/1/1
